<svg version="1.0" xmlns="http://www.w3.org/2000/svg"
 width="50px" height="50px" viewBox="0 0 1280.000000 1218.000000"
 preserveAspectRatio="xMidYMid meet">
<metadata>
Created by potrace 1.15, written by Peter Selinger 2001-2017
</metadata>
<g transform="translate(0.000000,1218.000000) scale(0.100000,-0.100000)"
fill="rosybrown" stroke="none">
<path d="M7680 12164 c-237 -44 -418 -167 -555 -378 -176 -270 -215 -598 -99
-836 52 -106 170 -223 276 -274 138 -66 259 -80 393 -46 230 59 427 259 481
487 57 242 -88 423 -338 423 -81 0 -209 -24 -257 -49 -91 -46 -93 -189 -2
-236 38 -19 73 -19 158 1 76 18 160 14 174 -7 29 -43 -29 -175 -112 -254 -115
-109 -241 -138 -364 -81 -172 78 -240 255 -186 481 25 101 49 159 105 243 123
189 274 267 511 266 102 0 132 -5 200 -27 117 -39 199 -91 295 -187 97 -97
154 -194 192 -325 31 -111 31 -293 -1 -412 -33 -127 -68 -217 -133 -348 -106
-212 -178 -327 -509 -815 -248 -366 -347 -526 -433 -698 -96 -192 -151 -344
-187 -517 -39 -186 -23 -451 35 -590 9 -20 16 -41 16 -45 0 -4 -78 -10 -172
-14 -95 -3 -216 -9 -269 -12 l-96 -6 -29 58 c-25 51 -29 70 -29 144 0 113 19
164 171 473 186 379 235 551 220 782 -32 501 -366 971 -759 1065 -210 51 -424
-3 -603 -150 -86 -70 -201 -212 -241 -295 -60 -128 -77 -290 -48 -458 68 -392
320 -726 605 -802 66 -18 189 -19 262 -4 178 38 324 190 374 389 23 93 15 253
-17 337 -66 170 -200 263 -378 263 -100 0 -203 -35 -248 -85 -28 -29 -33 -42
-33 -85 0 -41 5 -55 31 -85 46 -53 92 -62 168 -36 89 31 126 28 166 -12 93
-93 62 -313 -55 -392 -41 -28 -52 -30 -130 -30 -75 0 -91 3 -137 29 -261 144
-437 648 -306 875 37 64 157 186 222 225 133 81 258 86 396 17 147 -73 258
-195 350 -386 63 -129 91 -224 105 -356 21 -205 -12 -324 -195 -699 -155 -318
-186 -407 -192 -550 -4 -83 0 -121 15 -180 11 -41 18 -77 16 -79 -1 -2 -70
-14 -151 -27 -770 -120 -1257 -381 -1456 -779 -62 -126 -107 -300 -107 -420 0
-67 28 -189 60 -261 53 -121 172 -262 295 -350 l64 -45 -14 -33 c-12 -29 -12
-58 5 -222 117 -1120 335 -1903 693 -2484 36 -58 64 -106 63 -107 -1 -1 -20 3
-42 9 -21 6 -83 18 -137 27 l-98 17 38 25 c74 48 79 147 11 211 -38 35 -84 36
-276 7 -696 -106 -1119 -344 -1319 -744 -78 -154 -123 -354 -123 -540 0 -79
-2 -86 -17 -80 -134 51 -344 47 -455 -11 -70 -36 -158 -141 -158 -188 0 -8 8
-17 18 -20 9 -2 163 -24 341 -48 231 -30 329 -47 339 -58 14 -13 14 -15 0 -18
-9 -2 -169 17 -356 42 -187 26 -343 46 -346 46 -3 0 -6 -15 -6 -33 0 -137 147
-278 336 -323 144 -34 331 -7 419 60 18 14 37 26 42 26 4 0 23 -26 42 -57 106
-175 317 -372 566 -528 408 -255 1081 -479 1667 -555 494 -63 1384 -98 2063
-80 2010 52 3152 402 3485 1067 63 126 83 222 83 388 0 95 -5 166 -17 220
-103 477 -462 859 -916 975 -100 25 -236 43 -276 35 -18 -3 -46 -20 -63 -37
l-30 -31 -88 38 c-48 20 -89 38 -91 40 -5 4 80 177 125 252 58 98 171 325 213
426 32 78 33 79 64 72 328 -69 611 -51 894 55 202 76 365 185 524 348 340 350
475 815 328 1138 -172 381 -602 494 -1232 325 -62 -16 -144 -42 -183 -56 -38
-14 -73 -25 -77 -25 -4 0 -8 21 -10 47 l-3 48 -65 12 c-36 7 -137 16 -225 20
l-160 8 118 32 c206 57 440 157 572 245 75 50 186 158 225 219 77 118 96 285
51 426 -114 353 -578 657 -1357 888 -49 14 -95 28 -102 30 -9 3 -5 19 14 57
67 133 146 380 189 591 113 561 48 1089 -176 1418 -123 182 -301 307 -534 375
-120 35 -316 44 -419 20 -113 -27 -192 -71 -277 -156 -141 -140 -205 -326
-196 -570 6 -155 29 -248 98 -389 107 -219 292 -341 514 -341 146 0 265 49
371 155 118 118 171 250 162 410 -7 105 -37 182 -94 239 -125 126 -346 111
-495 -33 -58 -57 -70 -101 -43 -157 24 -48 60 -74 112 -81 37 -5 49 -1 105 36
34 22 77 44 95 47 28 6 33 3 42 -20 37 -99 -29 -245 -134 -295 -24 -12 -72
-24 -107 -27 -83 -8 -150 19 -212 85 -90 97 -135 214 -144 376 -11 207 61 366
195 432 150 73 444 16 608 -119 309 -253 398 -862 223 -1518 -49 -182 -154
-445 -183 -456 -6 -2 -63 7 -126 21 -411 91 -997 182 -1450 224 -225 21 -241
19 -289 -33 -18 -19 -26 -41 -29 -81 -4 -53 -3 -56 35 -94 44 -45 24 -41 343
-71 231 -23 485 -56 725 -96 232 -38 625 -117 625 -125 0 -15 -101 -109 -159
-148 -87 -60 -113 -130 -71 -199 30 -48 77 -74 126 -69 76 8 230 130 336 266
28 36 55 70 59 74 8 10 247 -56 416 -114 375 -129 657 -280 809 -433 82 -83
118 -141 140 -226 14 -55 14 -66 0 -114 -47 -162 -308 -311 -751 -427 -82 -21
-157 -39 -165 -38 -8 0 33 17 91 38 238 85 369 185 369 281 0 174 -368 333
-1026 444 -131 23 -164 32 -255 75 -735 347 -2013 398 -3104 125 -312 -79
-645 -215 -853 -350 -46 -30 -109 -67 -141 -83 -187 -95 -240 -210 -143 -313
34 -37 23 -35 -56 9 -234 129 -358 264 -392 427 -33 162 67 416 224 563 202
191 543 329 1026 417 75 14 186 30 247 37 l112 12 69 -61 c81 -72 131 -96 178
-88 64 13 114 76 114 146 l0 30 238 0 237 0 80 -81 c102 -103 196 -180 315
-259 90 -58 98 -62 143 -57 106 10 160 129 96 211 -11 14 -60 53 -110 87 -49
34 -89 62 -89 64 0 1 18 21 40 43 34 34 40 46 40 82 0 55 -25 107 -61 126 -16
8 -91 22 -168 31 l-140 16 -35 66 c-60 115 -78 183 -83 321 -9 202 36 377 162
635 99 204 167 313 546 875 354 524 483 769 562 1069 28 106 31 130 31 281 1
143 -2 176 -22 250 -70 256 -221 472 -424 604 -99 64 -173 99 -288 132 -112
33 -305 41 -430 18z m-2133 -6335 c43 -17 81 -33 85 -35 3 -2 -4 -23 -17 -47
-88 -158 -37 -553 141 -1082 147 -441 459 -1060 750 -1487 l93 -138 -101 0
-102 0 -44 48 c-109 116 -256 347 -372 584 -231 471 -404 1148 -490 1918 -11
102 -23 204 -26 228 -3 23 -3 42 0 42 2 0 40 -14 83 -31z m568 -174 c554 -128
1226 -185 2200 -185 587 0 1051 25 1590 86 33 4 58 4 55 1 -9 -10 -321 -46
-580 -66 -1035 -83 -1247 -95 -1835 -112 -556 -15 -1005 -8 -1135 19 -112 23
-239 70 -301 111 -24 17 -78 67 -119 112 -59 65 -69 81 -50 76 14 -4 93 -22
175 -42z m3892 -91 c-3 -3 -12 -4 -19 -1 -8 3 -5 6 6 6 11 1 17 -2 13 -5z
m1767 -811 c-13 -59 -47 -115 -84 -139 -67 -45 -122 -55 -277 -53 -112 2 -146
-1 -165 -13 -12 -8 -35 -17 -50 -20 -31 -6 -33 3 -22 75 6 33 10 37 38 37 17
0 55 11 84 25 112 52 343 112 440 114 41 1 42 0 36 -26z m486 -336 c0 -2 -10
-12 -22 -23 l-23 -19 19 23 c18 21 26 27 26 19z m-7470 -1445 c-130 -89 -278
-220 -370 -327 -47 -56 -45 -47 11 36 54 80 182 196 284 257 86 50 126 69 75
34z m6744 -523 c142 -150 236 -345 266 -557 50 -341 -157 -624 -615 -840 l-50
-23 60 61 c33 34 128 113 211 175 162 122 210 170 249 250 34 69 45 137 45
280 0 292 -93 532 -292 751 l-53 58 49 -34 c26 -19 85 -74 130 -121z m-7083
-765 c67 -99 135 -182 243 -293 107 -111 64 -86 -66 38 -110 104 -194 214
-247 324 -53 108 -62 149 -16 68 20 -36 59 -97 86 -137z"/>
<path d="M3481 3398 c-43 -12 -121 -65 -121 -82 0 -6 141 -114 313 -238 171
-125 331 -241 355 -258 l42 -32 21 48 c32 72 23 171 -24 267 -63 126 -204 244
-346 287 -68 22 -181 25 -240 8z"/>
<path d="M3323 3267 c-25 -32 -35 -81 -32 -150 4 -60 11 -87 41 -149 69 -138
235 -267 385 -298 78 -17 188 -8 238 17 49 26 92 70 79 82 -7 7 -273 200 -655
477 -36 26 -49 31 -56 21z"/>
<path d="M2373 2981 c-125 -34 -213 -91 -268 -173 -32 -50 -56 -118 -40 -118
3 0 57 -9 118 -20 62 -10 150 -26 197 -34 47 -8 242 -42 434 -76 243 -42 352
-58 360 -50 14 14 -6 128 -35 187 -51 109 -203 222 -364 273 -102 32 -302 38
-402 11z"/>
<path d="M2047 2621 c-7 -36 9 -117 35 -171 12 -25 53 -77 92 -116 80 -81 190
-141 311 -170 98 -25 289 -25 370 0 131 39 241 121 285 211 38 79 59 71 -370
146 -212 37 -460 81 -552 97 l-166 29 -5 -26z"/>
<path d="M1810 2254 c-125 -24 -259 -95 -338 -178 -71 -74 -102 -143 -102
-223 0 -35 2 -63 4 -63 3 0 268 63 704 169 133 32 245 61 248 64 13 13 -55
114 -100 148 -76 58 -153 81 -281 84 -60 2 -121 1 -135 -1z"/>
<path d="M350 2095 c-164 -37 -295 -142 -330 -264 -10 -35 -36 -27 225 -71 99
-17 332 -58 517 -91 186 -32 345 -59 353 -59 12 0 15 13 15 59 0 168 -190 354
-425 417 -85 22 -274 27 -355 9z"/>
<path d="M2275 1965 c-27 -7 -165 -40 -305 -74 -517 -123 -582 -139 -585 -143
-10 -9 38 -91 73 -125 78 -75 186 -113 328 -113 264 0 499 148 549 348 15 58
13 123 -3 121 -4 0 -29 -7 -57 -14z"/>
<path d="M2 1685 c16 -194 208 -365 470 -419 220 -46 449 11 566 139 47 51 92
138 79 151 -6 7 -1071 194 -1101 194 -17 0 -18 -6 -14 -65z"/>
<path d="M2675 1484 c-110 -24 -226 -85 -298 -157 -78 -77 -109 -139 -115
-229 -3 -45 -1 -68 7 -68 6 0 167 38 358 84 191 46 403 97 470 112 68 16 123
34 123 39 0 6 -15 35 -32 65 -37 61 -99 108 -186 140 -76 29 -230 36 -327 14z"/>
<path d="M3070 1180 c-85 -21 -290 -70 -455 -109 -165 -40 -308 -75 -318 -78
-15 -4 -17 -11 -12 -31 18 -76 115 -158 226 -193 83 -26 237 -28 329 -4 215
56 377 208 396 371 11 86 11 86 -166 44z"/>
<path d="M1281 1165 c-150 -34 -267 -117 -316 -226 -15 -33 -25 -62 -23 -64 2
-2 107 -22 233 -44 127 -23 282 -50 345 -61 400 -70 514 -90 528 -90 12 0 14
12 10 68 -13 174 -191 346 -423 408 -85 22 -274 27 -354 9z"/>
<path d="M3832 1030 c-98 -26 -184 -73 -257 -142 -84 -78 -117 -141 -123 -236
-4 -69 -3 -74 14 -69 20 6 146 36 647 156 159 39 291 72 294 75 11 11 -40 96
-77 130 -82 73 -184 106 -330 105 -60 0 -122 -7 -168 -19z"/>
<path d="M932 755 c15 -183 182 -342 433 -412 82 -23 249 -27 333 -9 162 34
299 133 336 242 9 26 14 49 12 52 -6 5 -1072 192 -1099 192 -18 0 -19 -5 -15
-65z"/>
<path d="M4285 740 c-104 -26 -220 -54 -627 -151 -95 -23 -177 -45 -182 -50
-28 -26 69 -146 153 -188 229 -117 598 -22 740 189 47 72 72 169 55 214 -8 20
-6 20 -139 -14z"/>
<path d="M4878 735 c-45 -17 -108 -63 -107 -79 0 -11 682 -508 705 -514 23 -6
47 81 43 160 -7 130 -89 258 -226 352 -98 67 -187 96 -293 95 -47 0 -102 -7
-122 -14z"/>
<path d="M4720 578 c-74 -164 60 -408 285 -519 165 -81 325 -78 416 9 l39 37
-346 250 c-190 138 -352 254 -360 258 -11 6 -19 -3 -34 -35z"/>
</g>
</svg>